<svg width="16" height="16" viewBox="0 0 16 16" fill="none" xmlns="http://www.w3.org/2000/svg">
<g clip-path="url(#clip0_333_47)">
<path d="M8 0C3.58886 0 0 3.58886 0 8C0 12.4111 3.58886 16 8 16C12.4111 16 16 12.4111 16 8C16 3.58886 12.4111 0 8 0ZM8 15.4286C3.90371 15.4286 0.571429 12.096 0.571429 8C0.571429 3.904 3.90371 0.571429 8 0.571429C12.0963 0.571429 15.4286 3.904 15.4286 8C15.4286 12.096 12.0963 15.4286 8 15.4286Z" fill="white"/>
<path d="M8.20202 2.65507C8.09031 2.54336 7.90973 2.54336 7.79802 2.65507L3.22659 7.2265C3.14488 7.30822 3.1203 7.43107 3.16459 7.53793C3.20888 7.6445 3.31316 7.71422 3.42859 7.71422H4.28573V12.8571C4.28573 13.0148 4.41345 13.1428 4.57145 13.1428H6.85716H9.14288H11.4286C11.5866 13.1428 11.7143 13.0148 11.7143 12.8571V7.71422H12.5714C12.6869 7.71422 12.7914 7.6445 12.8354 7.53793C12.8797 7.43107 12.8552 7.30822 12.7734 7.2265L8.20202 2.65507ZM7.14288 12.5714V9.4285H8.85716V12.5714H7.14288ZM11.1429 12.5714H9.42859V9.14279C9.42859 8.98507 9.30088 8.85707 9.14288 8.85707H6.85716C6.69916 8.85707 6.57145 8.98507 6.57145 9.14279V12.5714H4.85716V7.71422H11.1429V12.5714ZM11.4286 7.14279H4.57145H4.1183L8.00002 3.26107L11.8817 7.14279H11.4286Z" fill="white"/>
</g>
<defs>
<clipPath id="clip0_333_47">
<rect width="16" height="16" fill="white"/>
</clipPath>
</defs>
</svg>
