<svg width="265" height="350" viewBox="0 0 265 350" fill="none" xmlns="http://www.w3.org/2000/svg">
<path d="M132.831 0C60.0561 0 0.849121 59.207 0.849121 131.981C0.849121 162.064 22.0051 206.639 63.7301 264.466C94.1901 306.681 125.093 341.073 125.401 341.416L132.83 349.661L140.259 341.416C140.568 341.074 171.47 306.682 201.93 264.466C243.655 206.638 264.811 162.064 264.811 131.981C264.812 59.207 205.605 0 132.831 0ZM132.83 319.617C95.7721 276.925 20.8501 180.569 20.8501 131.981C20.8491 70.235 71.0841 20 132.831 20C194.578 20 244.812 70.235 244.812 131.981C244.812 180.54 169.888 276.915 132.83 319.617Z" fill="white"/>
<path d="M132.831 181.678C160.278 181.678 182.527 159.428 182.527 131.982C182.527 104.536 160.278 82.2859 132.831 82.2859C105.385 82.2859 83.1353 104.536 83.1353 131.982C83.1353 159.428 105.385 181.678 132.831 181.678Z" fill="white"/>
</svg>
