<svg width="16" height="16" viewBox="0 0 16 16" fill="none" xmlns="http://www.w3.org/2000/svg">
<path d="M7.33334 0H0.333344C0.15 0 0 0.15 0 0.333344V7.33334C0 7.51669 0.15 7.66669 0.333344 7.66669H7.33334C7.51669 7.66669 7.66669 7.51669 7.66669 7.33334V0.333344C7.66666 0.15 7.51666 0 7.33334 0ZM7 7H0.666656V0.666656H7V7Z" fill="white"/>
<path d="M15.6667 0H9.00009C8.81675 0 8.66675 0.15 8.66675 0.333344V7.33334C8.66675 7.51669 8.81675 7.66669 9.00009 7.66669H15.6667C15.8501 7.66669 16.0001 7.51669 16.0001 7.33334V0.333344C16.0001 0.15 15.8501 0 15.6667 0ZM15.3334 7H9.33344V0.666656H15.3334V7Z" fill="white"/>
<path d="M7.33334 8.33337H0.333344C0.15 8.33337 0 8.48337 0 8.66669V15.6667C0 15.85 0.15 16 0.333344 16H7.33334C7.51669 16 7.66669 15.85 7.66669 15.6667V8.66669C7.66666 8.48337 7.51666 8.33337 7.33334 8.33337ZM7 15.3334H0.666656V9.00003H7V15.3334Z" fill="white"/>
<path d="M15.6667 8.33337H9.00009C8.81675 8.33337 8.66675 8.48337 8.66675 8.66672V15.6667C8.66675 15.8501 8.81675 16.0001 9.00009 16.0001H15.6667C15.8501 16 16.0001 15.85 16.0001 15.6667V8.66669C16.0001 8.48337 15.8501 8.33337 15.6667 8.33337ZM15.3334 15.3334H9.33344V9.00003H15.3334V15.3334Z" fill="white"/>
</svg>
