<svg width="234" height="57" viewBox="0 0 234 57" fill="none" xmlns="http://www.w3.org/2000/svg">
<g clip-path="url(#clip0_301_2)">
<path d="M135.474 29.8037C135.474 24.2728 133.107 19.3861 125.099 19.3861C120.991 19.3861 117.728 20.557 115.959 21.5818L117.255 26.0191C118.884 24.9971 121.484 24.1555 123.937 24.1555C127.991 24.1497 128.655 26.4428 128.655 27.9171V28.2721C119.806 28.2578 114.212 31.3152 114.212 37.5417C114.212 41.3464 117.052 44.9134 122.016 44.9134C125.045 44.9134 127.604 43.691 129.133 41.7615H129.282C129.282 41.7615 130.29 45.9783 135.863 44.3666C135.58 42.6003 135.474 40.7395 135.474 38.4779V29.8037V29.8037ZM128.873 35.6437C128.873 36.0903 128.835 36.5541 128.704 36.952C128.194 38.6554 126.436 40.081 124.249 40.081C122.403 40.081 120.954 39.0361 120.954 36.8461C120.954 33.4967 124.653 32.5749 128.873 32.5978" fill="white"/>
<path d="M0 11.8607C0 11.8607 5.77987 35.5071 6.69886 39.3375C7.78095 43.8149 9.71905 45.4696 15.3129 44.3674L18.9257 29.7043C19.8389 26.0715 20.4601 23.4664 21.0499 19.7648H21.15C21.5594 23.5036 22.1492 26.0715 22.8963 29.7158C22.8963 29.7158 24.3706 36.3774 25.1351 39.8671C25.8793 43.3568 27.9748 45.5583 33.4628 44.3674L42.0626 11.8607H35.1203L32.1689 25.9226C31.3873 29.9963 30.6773 33.2055 30.1248 36.9385H30.0246C29.5265 33.2456 28.8938 30.1681 28.0808 26.1774L25.0234 11.8607H17.7806L14.517 25.811C13.5866 30.0708 12.7164 33.486 12.1695 37.1017H12.0751C11.5112 33.7093 10.7468 29.3894 9.93659 25.2899C9.93659 25.2899 7.99849 15.3018 7.31434 11.8607" fill="white"/>
<path d="M61.4095 29.8037C61.4095 24.2728 59.0362 19.3861 51.029 19.3861C46.9325 19.3861 43.6632 20.557 41.8941 21.5818L43.1909 26.0191C44.8141 24.9971 47.4107 24.1555 49.8726 24.1555C53.9262 24.1497 54.5904 26.4428 54.5904 27.9171V28.2721C45.7416 28.2578 40.1421 31.3152 40.1421 37.5417C40.1421 41.3464 42.9934 44.9134 47.9345 44.9134C50.9918 44.9134 53.5284 43.691 55.0571 41.7615H55.2115C55.2115 41.7615 56.225 45.9783 61.793 44.3666C61.5068 42.6003 61.4095 40.7395 61.4095 38.4779V29.8037V29.8037ZM54.8023 35.6437C54.8023 36.0903 54.7651 36.5541 54.6391 36.952C54.1237 38.6554 52.3661 40.081 50.1732 40.081C48.3381 40.081 46.8838 39.0361 46.8838 36.8461C46.8838 33.4967 50.5824 32.5749 54.8023 32.5978" fill="white"/>
<path d="M65.0117 11.8607V44.3559H71.6189V37.4653V11.8607H65.0117Z" fill="white"/>
<path d="M155.753 11.8607V35.8364C155.753 39.1457 156.374 41.4531 157.711 42.8673C158.885 44.1069 160.806 44.9142 163.093 44.9142C165.057 44.9142 166.978 44.5363 167.885 44.2071L167.805 39.0455C167.127 39.203 166.351 39.3375 165.286 39.3375C163.03 39.3375 162.286 37.909 162.286 34.9375V25.7594H168.04V19.5501H162.286V11.8607" fill="white"/>
<path d="M138.675 19.9501V44.3666H145.506V31.862C145.506 31.1893 145.549 30.6081 145.655 30.0699C146.164 27.4333 148.165 25.7643 151.048 25.7643C151.852 25.7643 152.399 25.8531 153.006 25.9475V19.5464C152.497 19.4548 152.15 19.4061 151.523 19.4061C148.967 19.4061 146.07 21.0293 144.847 24.5648H144.678V19.9501" fill="white"/>
<path d="M75.4556 19.9501V44.3666H82.1114V30.0356C82.1114 29.3628 82.1858 28.6758 82.4234 28.0545C82.9646 26.6031 84.3072 24.9227 86.4628 24.9227C89.1423 24.9227 90.4077 27.1843 90.4077 30.4478V44.3666H97.0465V29.8638C97.0465 29.2311 97.1353 28.4553 97.3212 27.8942C97.8538 26.2481 99.308 24.9227 101.318 24.9227C104.026 24.9227 105.337 27.1356 105.337 30.9831V44.3666H111.97V29.9697C111.97 22.4063 108.122 19.4061 103.754 19.4061C101.833 19.4061 100.304 19.8785 98.9301 20.7259C97.7678 21.4387 96.7488 22.4435 95.8355 23.7575H95.7353C94.6847 21.1295 92.217 19.4061 88.9934 19.4061C84.8597 19.4061 82.9817 21.4931 81.8767 23.2565H81.7764V19.9501" fill="white"/>
<path d="M203.787 18.8542C205.092 18.8542 206.191 18.1728 206.335 17.2968L207.629 2.63947C207.629 1.18805 205.92 0 203.787 0C201.643 0 199.945 1.18805 199.945 2.63947L201.25 17.2968C201.388 18.1728 202.481 18.8542 203.787 18.8542Z" fill="#FCB61A"/>
<path d="M195.848 23.4406C196.494 22.2955 196.457 21.0244 195.759 20.4576L183.678 12.0096C182.421 11.2767 180.54 12.1499 179.464 13.9992C178.39 15.8457 178.608 17.9183 179.839 18.6369L193.214 24.8376C194.07 25.1583 195.189 24.5628 195.848 23.4291" fill="#FCB61A"/>
<path d="M211.724 23.4286C212.408 24.5623 213.528 25.1577 214.361 24.8543L227.735 18.6364C228.978 17.9035 229.164 15.8509 228.113 14.0044C227.04 12.1551 225.148 11.2877 223.894 12.0062L211.81 20.4456C211.14 21.021 211.091 22.2978 211.738 23.4401" fill="#FCB61A"/>
<path d="M203.787 37.163C205.092 37.163 206.191 37.8443 206.335 38.7203L207.629 53.3777C207.629 54.8291 205.92 56.0057 203.787 56.0057C201.643 56.0057 199.945 54.8291 199.945 53.3777L201.25 38.7203C201.388 37.8443 202.481 37.163 203.787 37.163Z" fill="#FCB61A"/>
<path d="M211.724 32.5894C212.408 31.4529 213.528 30.846 214.361 31.1752L227.735 37.3817C228.978 38.1003 229.164 40.17 228.113 42.0194C227.04 43.8544 225.148 44.7276 223.894 44.009L211.81 35.5581C211.14 34.9884 211.091 33.7174 211.738 32.5894" fill="#FCB61A"/>
<path d="M195.848 32.5768C196.494 33.719 196.457 34.9872 195.759 35.5598L183.678 43.9963C182.421 44.7292 180.54 43.8532 179.464 42.0182C178.39 40.1717 178.608 38.099 179.839 37.3805L193.214 31.174C194.07 30.8477 195.189 31.4488 195.848 32.5768Z" fill="#FCB61A"/>
<path d="M231.65 42.7228H231.816C232.042 42.7228 232.133 42.7943 232.159 42.9747C232.208 43.1751 232.234 43.3096 232.282 43.3669H232.712C232.675 43.324 232.626 43.2152 232.6 42.9633C232.551 42.7457 232.44 42.6226 232.282 42.5796V42.5396C232.5 42.4909 232.626 42.3449 232.626 42.1645C232.626 42.0014 232.551 41.884 232.477 41.8096C232.334 41.7409 232.197 41.6865 231.893 41.6865C231.624 41.6865 231.426 41.7094 231.269 41.7466V43.3669H231.65V42.7228V42.7228ZM231.661 41.9842L231.856 41.9584C232.085 41.9584 232.208 42.0643 232.208 42.2132C232.208 42.3793 232.042 42.4565 231.83 42.4565H231.661V41.9842V41.9842ZM231.905 40.8849C230.966 40.8849 230.221 41.6178 230.221 42.5167C230.221 43.4385 230.966 44.1713 231.905 44.1713C232.855 44.1713 233.576 43.4385 233.576 42.5167C233.576 41.6178 232.855 40.8849 231.905 40.8849ZM231.905 41.2141C232.626 41.2141 233.161 41.7981 233.161 42.5167C233.161 43.2409 232.626 43.8421 231.905 43.8307C231.183 43.8307 230.636 43.2409 230.636 42.5167C230.636 41.7981 231.183 41.2141 231.893 41.2141" fill="#FCB61A"/>
</g>
<defs>
<clipPath id="clip0_301_2">
<rect width="233.576" height="56.0057" fill="white"/>
</clipPath>
</defs>
</svg>
